<svg xmlns="http://www.w3.org/2000/svg" viewBox="0 0 96 96">
  <rect width="96" height="96" rx="16" fill="#03070b"/>
  <path d="M13 48c0-14 16-25 35-25 11 0 21 3 28 9" fill="none" stroke="#5ee7ff" stroke-width="9" stroke-linecap="square"/>
  <path d="M82 38c2 3 3 6 3 10 0 14-16 25-37 25-12 0-23-4-29-10" fill="none" stroke="#2a8cff" stroke-width="9" stroke-linecap="square"/>
  <path d="M85 48c0 5-2 10-7 14" fill="none" stroke="#ff9b42" stroke-width="9" stroke-linecap="square"/>
  <path d="m53 7 13 29-10-4-3 31 8 5-17 21 3-28-8-6 9-25-9 2z" fill="#eaf8ff"/>
  <path d="m53 7 13 29-10-4-3 31-6-2 1-31-9 2z" fill="#5ee7ff"/>
  <path d="M20 23h13M63 73h13" stroke="#162d3a" stroke-width="5"/>
</svg>
